<svg xmlns="http://www.w3.org/2000/svg" viewBox="0 0 1024 717" fill="currentColor">
<g transform="translate(0,717) scale(0.1,-0.1)" stroke="none">
<path d="M7469 4320 c-76 -9 -276 -75 -404 -133 -89 -40 -130 -65 -90 -54 11
3 70 13 130 22 61 9 173 32 250 50 77 18 211 48 298 66 86 18 157 36 157 40 0
18 -211 24 -341 9z"/>
<path d="M7850 4280 c-28 -9 -258 -60 -417 -93 -57 -11 -103 -23 -103 -26 0
-3 43 -23 95 -44 l94 -38 247 7 c272 8 281 10 268 68 -9 41 -47 90 -90 115
-37 22 -53 24 -94 11z"/>
<path d="M7000 4239 c-133 -37 -423 -139 -416 -146 2 -2 58 2 125 7 l123 11
166 84 c92 47 163 85 157 84 -5 0 -75 -18 -155 -40z"/>
<path d="M7175 4130 c-22 -4 -103 -18 -179 -29 -76 -12 -148 -27 -160 -33 -53
-28 -217 -143 -208 -146 36 -12 812 120 812 138 0 3 -33 18 -73 33 -39 16 -80
33 -89 38 -20 10 -45 10 -103 -1z"/>
<path d="M7960 4060 c-11 -7 -6 -10 22 -10 20 0 40 5 43 10 8 13 -45 13 -65 0z"/>
<path d="M6545 4046 c-70 -9 -109 -21 -176 -54 -69 -33 -342 -185 -434 -241
-16 -10 -6 -11 55 -6 101 9 162 22 245 55 39 16 113 45 165 65 124 48 178 76
274 141 l79 54 -59 -1 c-33 -1 -99 -7 -149 -13z"/>
<path d="M7515 4040 c-67 -8 -145 -30 -145 -40 0 -12 137 -129 161 -139 13 -4
51 -11 84 -15 33 -4 108 -14 167 -23 l107 -17 28 30 c29 31 103 166 103 188 0
9 -20 15 -61 20 -79 8 -365 6 -444 -4z"/>
<path d="M7245 3975 c-5 -3 -62 -11 -125 -20 -63 -9 -137 -20 -165 -25 -65
-12 -259 -39 -355 -50 -48 -5 -118 -24 -195 -53 -187 -70 -211 -84 -235 -135
-12 -24 -18 -47 -15 -50 3 -3 65 8 138 26 180 44 447 96 592 116 66 9 138 21
160 26 53 11 175 28 310 43 l110 12 -71 58 c-57 45 -78 57 -105 56 -19 0 -38
-2 -44 -4z"/>
<path d="M5810 3743 c-495 -275 -1320 -772 -1320 -795 0 -21 117 36 285 139
50 30 180 109 290 175 110 67 247 151 305 188 58 37 206 129 330 205 249 153
269 165 255 164 -6 -1 -71 -35 -145 -76z"/>
<path d="M7315 3813 c-47 -4 -140 -19 -207 -34 -56 -13 -59 -22 -22 -86 31
-52 43 -58 149 -67 94 -9 277 -40 355 -61 73 -20 73 -20 113 18 49 45 157 167
157 177 0 14 -16 18 -197 45 -93 13 -241 17 -348 8z"/>
<path d="M5675 3727 c-44 -24 -152 -80 -240 -126 -311 -163 -600 -327 -857
-488 -167 -104 -186 -118 -173 -131 8 -8 23 0 290 163 116 70 269 161 340 203
72 41 200 116 285 165 85 50 216 123 290 164 116 64 167 95 150 92 -3 0 -41
-19 -85 -42z"/>
<path d="M6896 3749 c-60 -8 -245 -40 -301 -53 -11 -2 -63 -13 -115 -25 -185
-39 -306 -69 -343 -85 -59 -24 -322 -189 -309 -194 17 -5 219 25 347 53 161
35 255 51 395 70 248 33 331 46 348 54 9 5 44 19 77 32 33 12 64 25 68 29 5 4
-5 35 -22 69 -35 68 -27 65 -145 50z"/>
<path d="M6080 3719 c-25 -5 -91 -15 -146 -23 -100 -14 -103 -15 -240 -98 -77
-47 -174 -107 -216 -134 -43 -27 -142 -89 -220 -139 -255 -160 -353 -225 -342
-225 16 0 209 64 434 143 301 106 352 126 405 157 95 57 300 192 323 213 18
17 62 97 62 113 0 4 2 5 -60 -7z m-890 -473 c0 -6 -112 -77 -116 -73 -2 2 22
20 53 40 61 38 63 39 63 33z"/>
<path d="M7000 3564 c-41 -18 -79 -35 -84 -37 -5 -1 8 -37 29 -80 35 -71 40
-77 74 -82 20 -4 113 -23 208 -42 l172 -36 78 71 c122 110 158 151 147 162
-20 20 -397 81 -492 79 -42 -1 -77 -10 -132 -35z"/>
<path d="M6780 3503 c-118 -13 -401 -56 -485 -73 -140 -30 -419 -77 -486 -83
-34 -3 -137 -34 -270 -82 -118 -43 -281 -102 -364 -132 -258 -93 -425 -156
-421 -160 4 -4 142 36 310 92 77 25 144 44 150 41 6 -2 1 -5 -11 -5 -28 -1
-41 -21 -14 -21 12 0 21 -4 21 -9 0 -10 -60 -24 -68 -16 -3 3 2 5 11 5 9 0 17
5 17 10 0 6 -4 10 -10 10 -14 0 -231 -73 -227 -76 2 -2 43 8 92 21 92 26 126
31 90 14 -21 -9 14 -7 105 7 91 14 31 -4 -85 -26 -66 -12 -194 -40 -285 -61
-91 -22 -176 -42 -189 -45 -13 -3 -21 -7 -19 -9 5 -5 432 70 593 104 55 12
135 28 178 36 43 8 124 25 180 39 56 14 154 34 217 45 293 53 401 71 484 82
68 9 114 22 195 59 58 25 129 54 156 63 41 13 214 37 271 37 22 0 17 28 -17
86 -33 58 -30 57 -119 47z m-1451 -347 c-11 -11 -99 -44 -99 -38 0 4 19 15 43
24 42 17 64 22 56 14z"/>
<path d="M6747 3315 c-81 -13 -307 -97 -307 -114 0 -11 203 -91 270 -107 36
-8 133 -31 215 -49 l150 -34 43 20 c43 21 251 212 242 222 -6 6 -131 38 -225
57 -94 19 -288 21 -388 5z"/>
<path d="M6320 3173 c-14 -2 -88 -13 -165 -24 -242 -36 -575 -106 -575 -121 0
-12 104 -56 150 -62 25 -4 157 -13 294 -21 284 -16 269 -18 441 65 157 75 155
68 26 123 -60 26 -118 46 -128 46 -10 -1 -29 -3 -43 -6z"/>
<path d="M3244 3160 c-34 -13 -36 -26 -12 -62 l23 -34 15 31 c8 16 27 36 43
43 15 7 27 17 27 23 0 11 -67 11 -96 -1z"/>
<path d="M3600 3153 c-27 -5 -50 -21 -50 -33 0 -5 39 -10 88 -12 48 -3 101
-10 117 -18 29 -12 26 -13 -65 -25 -53 -7 -111 -20 -130 -28 -33 -15 -30 -16
71 -10 59 3 119 3 135 -1 l29 -8 -30 -24 c-16 -14 -63 -48 -102 -76 -40 -28
-73 -52 -73 -55 0 -9 177 91 204 116 23 21 86 134 86 155 0 19 -205 32 -280
19z"/>
<path d="M3458 3140 c-18 -11 -33 -76 -43 -185 -3 -38 -11 -111 -17 -162 -14
-110 -4 -153 43 -201 66 -68 117 -55 260 67 106 89 156 152 214 268 36 74 75
180 68 187 -4 3 -16 6 -28 6 -19 0 -27 -14 -55 -92 -46 -133 -81 -206 -127
-263 -48 -60 -177 -162 -223 -175 -61 -18 -132 33 -146 105 -4 21 4 77 21 152
39 169 62 265 70 286 8 19 -9 23 -37 7z"/>
<path d="M3362 3117 c-14 -17 -36 -106 -28 -114 8 -8 8 -8 33 65 21 58 19 78
-5 49z"/>
<path d="M4036 3073 c-9 -22 -3 -26 86 -57 43 -15 104 -41 135 -58 72 -39 185
-119 190 -134 5 -15 -155 -78 -232 -92 -33 -6 -107 -14 -165 -19 l-105 -7 80
-8 c44 -4 100 -5 125 -2 57 7 168 39 228 66 26 12 66 26 90 33 l43 11 -47 53
c-62 69 -144 124 -274 183 -112 51 -144 58 -154 31z"/>
<path d="M3033 3047 c-48 -23 -58 -41 -15 -26 31 11 68 37 61 43 -2 2 -23 -6
-46 -17z"/>
<path d="M6555 3015 c-49 -25 -97 -50 -105 -55 -8 -4 -37 -17 -64 -28 l-48
-19 33 -26 c55 -41 214 -118 256 -124 31 -4 52 2 103 28 36 19 81 45 101 59
126 87 178 126 179 130 0 7 -263 69 -320 75 -39 5 -56 0 -135 -40z"/>
<path d="M5365 2990 c-49 -11 -133 -30 -185 -44 -113 -31 -429 -96 -468 -97
-24 0 -25 -1 -7 -9 29 -12 184 -12 165 0 -10 7 11 10 70 10 77 1 83 2 66 15
-11 8 -15 15 -9 15 6 0 16 -6 23 -14 6 -8 21 -17 33 -19 12 -2 -20 -5 -72 -6
-52 0 -92 -3 -89 -6 3 -3 47 -7 99 -9 52 -2 119 -5 149 -6 30 -1 47 -4 38 -7
-42 -11 -1 -43 54 -43 l33 1 -27 22 -27 22 76 -2 c92 -3 111 -13 24 -13 -58 0
-61 -1 -46 -16 9 -9 37 -19 63 -22 43 -5 46 -4 33 11 -18 22 -7 22 14 0 13
-12 57 -22 159 -34 192 -25 542 -61 558 -58 7 1 20 -1 28 -4 8 -3 38 -8 65
-10 28 -3 69 -10 92 -17 34 -10 54 -10 105 0 35 6 67 14 71 17 5 3 -2 17 -15
32 l-23 26 28 -25 28 -24 56 19 c31 11 58 25 60 30 2 6 -14 17 -34 24 -21 8
-69 32 -108 54 -38 22 -89 51 -113 64 -39 23 -58 26 -305 39 -292 15 -787 18
-787 5 0 -5 6 -12 13 -14 9 -4 9 -6 0 -6 -6 -1 -15 4 -18 9 -3 6 -20 10 -36
10 -21 0 -28 -4 -23 -12 5 -8 2 -9 -10 -5 -10 4 -25 7 -33 7 -28 0 -9 9 33 16
74 12 89 13 272 20 100 4 182 10 182 14 0 15 -100 60 -131 59 -19 0 -74 -9
-124 -19z m-175 -124 c8 -2 -13 -4 -47 -5 -35 0 -63 2 -63 7 0 7 76 5 110 -2z"/>
<path d="M3165 2979 c-51 -14 -87 -61 -93 -117 -8 -89 44 -153 131 -160 49 -4
57 -1 90 27 85 75 71 197 -26 242 -46 20 -58 21 -102 8z m10 -59 c36 -24 72
-26 95 -5 15 14 19 13 35 -5 21 -24 25 -93 6 -128 -16 -30 -69 -62 -104 -62
-63 0 -127 64 -127 128 0 28 41 92 58 92 4 0 21 -9 37 -20z"/>
<path d="M4000 2964 c-9 -10 -4 -14 27 -19 36 -6 154 -36 198 -50 39 -12 -29
24 -83 45 -84 32 -130 40 -142 24z"/>
<path d="M6950 2889 c-130 -94 -374 -222 -484 -254 -31 -9 -56 -20 -56 -24 0
-5 15 -12 33 -18 26 -7 44 -4 92 15 117 47 273 134 376 211 99 75 194 162 174
160 -6 0 -66 -41 -135 -90z"/>
<path d="M2926 2963 c-12 -12 107 -31 122 -19 11 7 11 11 0 17 -16 11 -112 12
-122 2z"/>
<path d="M4595 2780 c39 -40 56 -50 82 -50 18 0 33 4 33 8 0 9 -140 92 -155
92 -5 0 13 -22 40 -50z"/>
<path d="M4771 2812 l-35 -4 43 -19 c36 -16 65 -19 172 -18 71 0 129 4 129 9
0 4 17 4 37 -1 43 -9 53 -4 32 15 -10 10 -58 15 -179 18 -91 2 -180 3 -199 0z"/>
<path d="M3020 2754 c0 -15 37 -61 44 -54 3 3 -6 19 -19 35 -13 17 -24 25 -25
19z"/>
<path d="M4990 2724 c-248 -24 -913 -139 -966 -167 l-29 -16 32 -1 c17 0 67 7
110 15 457 89 647 120 858 137 135 11 149 10 375 -20 204 -28 437 -53 697 -77
40 -4 110 -16 155 -27 110 -26 163 -32 184 -20 14 8 2 15 -64 36 -105 33 -215
49 -552 81 -151 14 -328 32 -392 40 -124 16 -334 26 -408 19z"/>
<path d="M4215 2657 c-165 -27 -186 -29 -252 -18 -56 9 -77 9 -95 0 -29 -14
-68 -50 -68 -61 0 -15 85 -8 166 13 43 11 140 31 214 44 167 30 273 53 240 53
-14 0 -106 -14 -205 -31z"/>
<path d="M3765 2651 c-46 -28 -66 -56 -72 -99 -10 -71 41 -132 126 -151 24 -5
46 -12 49 -16 63 -64 232 -213 289 -256 66 -50 306 -198 498 -307 223 -126
685 -368 685 -358 0 3 -39 26 -87 52 -252 136 -899 510 -998 577 -72 49 -178
134 -298 239 -49 43 -95 78 -103 78 -52 0 -134 76 -134 125 0 39 39 85 93 110
l52 25 -35 0 c-19 0 -48 -8 -65 -19z"/>
<path d="M4950 2644 c-14 -2 -56 -9 -95 -15 -189 -29 -496 -87 -504 -95 -10
-10 28 -6 444 53 200 27 393 33 490 15 39 -8 22 -9 -75 -5 -179 8 -403 -20
-431 -53 -6 -8 -16 -14 -21 -14 -6 0 -5 7 2 15 19 23 -31 20 -62 -5 -15 -11
-35 -18 -48 -15 -12 2 -30 0 -40 -5 -20 -11 -268 -46 -392 -56 -48 -4 -85 -11
-82 -15 10 -16 170 -9 369 16 375 48 512 57 805 53 254 -3 285 -1 405 21 72
13 132 25 134 27 10 9 -10 12 -134 23 -71 6 -202 20 -290 31 -150 20 -419 34
-475 24z m89 -98 c-2 -2 -47 -6 -99 -8 -52 -3 -81 -2 -65 2 30 8 172 13 164 6z"/>
<path d="M3079 2627 c15 -19 56 -23 66 -7 3 6 -5 10 -19 10 -13 0 -33 3 -43 7
-16 6 -16 5 -4 -10z"/>
<path d="M3206 2589 c-6 -38 -2 -59 9 -48 10 11 17 89 8 89 -6 0 -13 -19 -17
-41z"/>
<path d="M3351 2435 c-1 -101 4 -180 12 -215 17 -67 71 -198 100 -241 39 -57
46 -42 12 23 -62 117 -96 238 -102 365 -4 64 -2 113 3 112 16 -1 133 -155 185
-241 66 -112 70 -118 58 -83 -21 61 -81 163 -148 251 -38 49 -80 112 -94 140
l-25 49 -1 -160z"/>
<path d="M3131 2543 c0 -5 11 -30 24 -58 19 -40 23 -45 24 -25 1 14 -8 40 -19
58 -19 31 -31 41 -29 25z"/>
<path d="M5810 2525 c-188 -38 -220 -46 -220 -54 0 -4 31 -22 69 -40 l69 -32
93 16 c51 9 96 18 99 20 3 2 66 17 140 34 74 17 146 33 159 37 66 15 -72 44
-203 43 -52 0 -140 -11 -206 -24z"/>
<path d="M6410 2531 l-25 -8 30 -13 c17 -7 55 -24 85 -37 30 -13 78 -39 105
-57 28 -19 79 -49 115 -69 36 -19 86 -53 110 -75 25 -21 74 -54 110 -73 36
-19 94 -61 130 -95 36 -33 89 -74 118 -89 30 -16 77 -55 106 -86 29 -31 66
-64 83 -72 60 -31 131 -96 149 -136 12 -28 28 -44 56 -57 49 -22 114 -92 126
-136 5 -18 23 -48 41 -65 26 -26 31 -39 31 -78 0 -60 -31 -116 -79 -143 -53
-29 -131 -42 -309 -52 l-157 -8 -125 -57 c-69 -32 -127 -60 -130 -63 -12 -12
316 10 410 27 248 45 432 148 459 255 37 147 -161 372 -666 753 -247 187 -546
376 -673 424 -54 20 -61 21 -100 10z"/>
<path d="M3250 2453 c0 -38 5 -75 10 -83 7 -10 10 11 10 68 0 48 -4 82 -10 82
-6 0 -10 -29 -10 -67z"/>
<path d="M6240 2470 c-47 -10 -128 -28 -180 -40 -52 -11 -138 -30 -190 -41
-52 -11 -98 -23 -102 -27 -5 -5 36 -29 90 -55 110 -52 127 -55 267 -32 182 29
222 36 315 60 134 35 140 36 140 45 0 18 -166 95 -227 105 -15 2 -66 -4 -113
-15z"/>
<path d="M4985 2470 c-167 -18 -201 -23 -213 -33 -11 -8 -11 -12 0 -18 9 -6 7
-9 -7 -9 -18 -1 -18 -2 3 -10 12 -5 22 -13 22 -18 0 -9 36 -9 45 0 3 3 20 3
38 -1 18 -4 43 -5 57 -1 25 6 25 6 3 12 -14 4 -23 2 -23 -5 0 -7 -5 -4 -11 6
-11 18 -59 24 -59 7 0 -5 -11 -10 -25 -10 -20 0 -24 5 -23 24 2 20 6 23 24 16
12 -5 24 -6 27 -3 3 3 20 1 36 -5 26 -9 31 -8 31 4 0 8 4 12 10 9 5 -3 19 -1
31 6 12 6 19 7 15 1 -3 -6 10 -6 34 -2 22 4 40 6 40 4 0 -1 -9 -19 -21 -38
-13 -23 -29 -36 -42 -37 -12 0 -42 -2 -67 -4 -119 -10 -240 -13 -240 -7 0 4 7
18 16 30 12 17 12 22 2 23 -7 0 -2 5 12 11 25 11 25 11 2 15 -24 5 -57 -21
-47 -37 3 -6 -1 -13 -9 -16 -9 -3 -16 -12 -16 -19 0 -31 -115 -31 -303 1 -49
9 -91 13 -93 11 -8 -8 100 -39 185 -53 79 -13 281 -8 436 11 22 2 146 7 275
10 275 7 511 22 522 33 5 5 -26 26 -67 47 -83 42 -159 54 -330 53 -88 0 -89
-1 -33 -9 51 -7 183 -53 227 -79 28 -17 -67 -12 -100 5 -16 9 -34 13 -39 10
-6 -3 -10 -2 -10 3 0 8 -27 15 -87 24 -7 1 -13 5 -13 10 0 4 -4 8 -9 8 -14 0
-41 -29 -41 -43 0 -8 3 -7 9 2 6 9 11 10 15 2 4 -6 12 -9 17 -6 5 4 9 1 9 -4
0 -6 3 -10 8 -10 18 3 42 -2 42 -8 0 -5 -41 -9 -91 -11 -50 -2 -90 0 -88 5 19
41 58 93 74 96 35 7 -87 4 -160 -3z"/>
<path d="M3661 2363 c-1 -41 23 -152 48 -225 27 -78 144 -308 157 -308 1 0
-10 31 -26 69 -16 38 -41 111 -54 162 -22 86 -25 91 -28 54 -3 -39 -3 -39 -30
40 -15 44 -36 116 -47 160 -13 53 -20 69 -20 48z"/>
<path d="M4010 2366 c0 -8 125 -102 216 -163 257 -173 1231 -745 1489 -875
137 -69 183 -82 270 -73 78 7 232 37 314 61 92 26 49 26 -64 -1 -138 -32 -279
-50 -337 -41 -104 16 -373 169 -1298 742 -85 53 -198 122 -250 154 -52 31
-148 89 -212 129 -112 68 -128 76 -128 67z"/>
<path d="M5598 2333 c-21 -2 -38 -7 -37 -11 0 -4 32 -23 72 -42 39 -19 83 -44
97 -56 14 -11 52 -36 84 -54 l60 -34 -29 -9 c-19 -7 -39 -6 -62 2 -28 10 -36
10 -49 -3 -8 -9 -26 -16 -39 -16 -24 0 -24 0 -9 42 8 22 13 42 12 43 -2 1 -19
8 -38 15 -19 8 -51 24 -70 37 -39 26 -75 30 -83 10 -6 -16 29 -40 45 -31 7 5
8 2 3 -6 -6 -10 -4 -12 8 -7 11 4 17 1 17 -7 0 -8 7 -12 18 -10 35 8 45 -10
28 -50 l-15 -37 -121 2 c-66 0 -120 5 -120 10 0 15 78 167 90 174 25 15 3 20
-87 17 -129 -3 -185 -11 -177 -24 3 -5 22 -8 40 -6 19 2 34 0 34 -5 0 -5 7 -7
15 -4 8 4 17 2 20 -3 9 -14 62 -12 68 3 3 7 6 7 6 1 1 -6 -15 -43 -34 -82
l-34 -71 -68 5 c-37 4 -95 10 -128 15 -33 5 -80 12 -105 15 -25 4 -47 8 -50
11 -3 3 10 32 28 65 18 33 31 63 28 65 -3 3 -15 3 -28 -1 -16 -4 -31 -23 -48
-61 -14 -30 -29 -55 -33 -55 -5 0 -70 16 -145 36 -170 45 -212 53 -212 43 0
-24 388 -121 580 -144 336 -40 860 -24 860 27 0 6 -9 26 -21 45 -17 26 -47 46
-144 93 -123 60 -133 63 -227 53z"/>
<path d="M6550 2324 c-76 -24 -380 -83 -467 -90 -93 -8 -100 -15 -55 -64 23
-26 41 -33 130 -50 135 -26 204 -25 337 5 139 31 301 83 315 100 9 10 1 20
-32 43 -106 73 -146 83 -228 56z"/>
<path d="M3850 2295 c0 -4 32 -41 70 -83 85 -90 143 -202 171 -329 l19 -88 -5
77 c-6 96 -49 213 -102 279 -40 50 -153 156 -153 144z"/>
<path d="M5094 2292 c-15 -10 -13 -40 3 -46 8 -3 11 -1 8 4 -3 6 0 10 7 10 9
0 9 3 -2 10 -12 8 -10 10 10 10 14 0 32 5 40 10 11 7 6 10 -20 10 -19 0 -40
-4 -46 -8z"/>
<path d="M6790 2170 c-55 -20 -296 -81 -380 -97 l-45 -8 99 -83 100 -82 50 6
c147 19 456 117 456 145 0 21 -155 127 -195 133 -17 3 -55 -3 -85 -14z"/>
<path d="M4857 2065 c-17 -35 -17 -35 -46 -20 -46 23 -51 18 -7 -9 24 -14 34
-26 27 -30 -6 -4 -11 -18 -11 -32 0 -30 13 -24 33 14 7 15 23 43 35 64 11 20
18 39 15 42 -14 14 -30 4 -46 -29z"/>
<path d="M5972 2088 c-30 -5 -52 -11 -50 -12 52 -39 177 -145 190 -160 16 -19
28 -21 172 -24 85 -2 169 1 186 5 l31 8 -91 75 -91 75 -97 16 c-149 24 -193
27 -250 17z"/>
<path d="M5034 2081 c4 -5 37 -26 74 -47 37 -20 110 -65 162 -99 299 -196 504
-297 720 -354 177 -48 455 -76 655 -66 140 6 295 21 302 29 5 5 -66 116 -82
129 -10 8 -145 4 -376 -9 l-106 -7 34 -49 c41 -62 42 -78 4 -78 -84 0 -421 57
-438 74 -4 4 16 52 44 109 66 135 70 147 43 147 -13 0 -24 -9 -31 -27 -21 -59
-75 -174 -91 -195 l-16 -22 -79 27 c-43 15 -82 32 -86 36 -5 5 19 64 53 131
48 95 59 125 48 131 -25 16 -34 9 -52 -38 -22 -62 -90 -198 -98 -198 -21 0
-188 81 -188 91 0 7 25 65 55 129 30 65 55 119 55 121 0 2 -11 4 -24 4 -25 0
-41 -26 -102 -170 -13 -31 -29 -55 -37 -54 -20 2 -187 113 -187 125 0 5 9 28
20 50 24 46 20 58 -14 52 -16 -3 -29 -16 -37 -37 -7 -17 -13 -32 -15 -34 -1
-2 -37 16 -80 40 -96 52 -137 71 -130 59z"/>
<path d="M5750 2050 c0 -5 18 -15 40 -21 22 -7 40 -15 40 -18 0 -4 14 -15 31
-25 26 -15 33 -16 40 -5 15 24 10 37 -25 58 -35 22 -126 30 -126 11z"/>
<path d="M7080 2003 c-8 -3 -56 -20 -106 -39 -77 -28 -282 -85 -348 -96 -16
-3 -12 -12 32 -65 29 -34 62 -68 75 -75 41 -22 154 -14 271 21 128 38 278 101
284 119 5 15 -44 62 -113 108 -49 33 -65 38 -95 27z"/>
<path d="M5950 1961 c0 -5 6 -14 14 -21 17 -13 118 -42 124 -35 3 3 -4 7 -14
10 -10 3 -40 17 -67 30 -52 28 -57 29 -57 16z"/>
<path d="M4245 1933 c4 -10 22 -57 40 -105 41 -105 72 -168 84 -168 9 0 -24
84 -87 223 -17 37 -34 67 -37 67 -4 0 -4 -8 0 -17z"/>
<path d="M5202 1898 c-15 -18 -63 -150 -57 -156 14 -14 101 139 90 158 -8 13
-20 13 -33 -2z"/>
<path d="M3276 1879 c-80 -9 -213 -37 -238 -50 -15 -8 -13 -14 20 -44 33 -30
38 -32 49 -18 8 10 35 18 75 23 l63 6 -48 8 c-26 5 -56 6 -67 3 -11 -3 -20 -1
-20 3 0 15 164 46 300 56 50 4 93 11 96 15 6 11 -134 9 -230 -2z"/>
<path d="M6181 1853 c1 -5 35 -39 76 -78 l75 -70 170 2 c94 2 173 5 175 7 3 3
-21 36 -54 75 l-58 71 -192 0 c-106 0 -192 -3 -192 -7z"/>
<path d="M7284 1811 c-22 -10 -105 -40 -185 -66 -79 -26 -154 -51 -167 -56
l-23 -9 22 -40 c12 -22 35 -52 50 -66 l28 -27 78 13 c140 22 365 86 401 113 6
5 12 15 12 22 0 28 -130 136 -162 134 -7 0 -31 -9 -54 -18z"/>
<path d="M3925 1790 c-13 -15 -16 -30 -12 -61 6 -48 21 -69 23 -33 4 64 61 94
113 58 22 -16 23 -16 12 4 -28 52 -102 69 -136 32z"/>
<path d="M6130 1807 c0 -12 82 -87 95 -87 9 0 -4 18 -35 45 -46 41 -60 51 -60
42z"/>
<path d="M3001 1756 c-7 -8 -16 -29 -22 -48 -10 -36 -59 -298 -59 -319 0 -33
12 10 40 151 18 85 40 169 51 187 20 32 11 55 -10 29z"/>
<path d="M5432 1698 c-17 -35 -33 -74 -37 -88 -7 -24 -6 -24 20 5 34 38 78
123 70 135 -13 20 -25 8 -53 -52z"/>
<path d="M4555 1728 c-44 -23 -143 -97 -164 -122 -24 -29 5 -17 82 34 112 74
123 77 154 39 l26 -31 13 30 c7 17 22 36 35 42 17 10 19 14 8 21 -26 16 -112
9 -154 -13z"/>
<path d="M3995 1730 c-3 -5 49 -116 115 -247 67 -131 119 -231 116 -223 -2 8
-28 71 -56 140 -29 69 -65 158 -81 198 -16 40 -35 85 -43 101 -16 30 -42 46
-51 31z"/>
<path d="M4704 1678 c-4 -6 11 -28 37 -52 24 -23 114 -120 199 -217 289 -329
360 -408 373 -416 6 -4 -16 26 -51 67 -35 41 -132 161 -217 265 -295 364 -319
389 -341 353z"/>
<path d="M6177 1633 c-25 -67 -5 -79 27 -15 22 43 23 51 10 56 -9 3 -17 6 -18
6 -1 0 -9 -21 -19 -47z"/>
<path d="M5662 1575 c-19 -35 -38 -67 -43 -70 -5 -4 -9 -11 -9 -16 0 -18 21 2
66 63 45 61 54 88 31 88 -7 0 -27 -29 -45 -65z"/>
<path d="M7470 1624 c-64 -29 -145 -52 -278 -80 -92 -19 -132 -32 -132 -41 0
-24 28 -70 56 -92 37 -29 178 -29 290 -1 134 35 238 68 258 83 19 14 19 15 -3
50 -31 50 -93 97 -127 97 -16 -1 -45 -8 -64 -16z"/>
<path d="M5906 1542 c-4 -10 -22 -45 -42 -77 -25 -42 -29 -53 -14 -40 29 27
90 110 90 124 0 18 -28 12 -34 -7z"/>
<path d="M4950 1526 c0 -14 5 -28 10 -31 6 -4 10 7 10 24 0 17 -4 31 -10 31
-5 0 -10 -11 -10 -24z"/>
<path d="M6099 1468 c-12 -24 -31 -56 -41 -71 -11 -16 -18 -30 -15 -33 3 -3
25 23 49 58 60 85 62 88 44 88 -9 0 -25 -19 -37 -42z"/>
<path d="M6885 1499 c-33 -5 -125 -13 -204 -17 -98 -5 -146 -11 -148 -19 -3
-7 14 -32 36 -56 23 -24 41 -47 41 -51 0 -3 -42 -7 -92 -7 -51 -1 -80 -4 -64
-6 69 -10 597 26 614 42 2 1 -11 30 -28 64 -35 68 -33 68 -155 50z"/>
<path d="M6298 1470 c-37 -60 -57 -101 -48 -95 19 11 71 96 67 108 -2 6 -10 1
-19 -13z"/>
<path d="M6399 1428 c-18 -35 -19 -40 -5 -29 23 19 49 71 36 71 -5 0 -19 -19
-31 -42z"/>
<path d="M7628 1437 c-13 -4 -75 -23 -138 -41 l-114 -34 -27 -48 c-15 -27 -30
-59 -34 -71 -6 -22 -4 -23 53 -23 79 0 217 18 273 36 63 20 101 62 103 113 1
69 -43 95 -116 68z"/>
<path d="M5200 1406 c0 -14 5 -28 10 -31 6 -4 10 7 10 24 0 17 -4 31 -10 31
-5 0 -10 -11 -10 -24z"/>
<path d="M7021 1339 c-80 -9 -197 -20 -258 -24 l-113 -7 17 -29 c20 -34 25
-35 238 -54 202 -18 305 -19 338 -4 20 9 77 103 77 127 0 12 -147 8 -299 -9z"/>
<path d="M6579 1256 c-10 -10 -310 -46 -401 -48 -53 -2 -94 -6 -91 -10 2 -5
17 -8 32 -8 16 0 55 -9 88 -19 71 -23 189 -46 368 -72 195 -28 285 -34 331
-20 55 17 214 85 214 91 0 8 -346 35 -430 35 -36 -1 -114 -8 -175 -17 -118
-18 -148 -21 -237 -19 -93 2 -67 17 50 30 96 11 154 19 261 37 26 4 31 8 20
15 -16 10 -24 11 -30 5z"/>
<path d="M1768 24 c-16 -8 -28 -17 -28 -19 0 -3 44 -5 98 -4 l97 1 -40 19
c-48 22 -90 23 -127 3z"/>
<path d="M5160 20 c0 -18 7 -20 75 -20 41 0 75 4 75 9 0 14 -58 31 -106 31
-37 0 -44 -3 -44 -20z"/>
<path d="M6350 21 c0 -20 5 -21 82 -21 76 0 81 1 66 16 -10 10 -41 18 -82 21
-62 5 -66 5 -66 -16z"/>
<path d="M6790 20 c0 -18 7 -20 75 -20 77 0 97 12 49 30 -14 6 -48 10 -75 10
-42 0 -49 -3 -49 -20z"/>
<path d="M7293 33 c-12 -2 -27 -11 -33 -19 -11 -12 1 -14 81 -14 85 0 92 1 72
15 -23 16 -86 26 -120 18z"/>
<path d="M8510 22 l-35 -17 48 -3 c26 -2 68 -2 95 0 l47 3 -32 18 c-40 21 -78
21 -123 -1z"/>
</g>
</svg>